<mxfile host="app.diagrams.net" modified="2022-09-24T23:22:38.244Z" agent="5.0 (X11)" etag="0n-zav_NyVUZCGgu_SmR" version="20.3.6" type="github">
  <diagram id="AYemvSfONCsUV0pKxOCV" name="Page-1">
    <mxGraphModel dx="462" dy="1889" grid="1" gridSize="10" guides="1" tooltips="1" connect="1" arrows="1" fold="1" page="1" pageScale="1" pageWidth="850" pageHeight="1100" math="0" shadow="0">
      <root>
        <mxCell id="0" />
        <mxCell id="1" parent="0" />
        <mxCell id="FjaWRYblNLU-ibb_c6nv-1" value="&lt;font size=&quot;1&quot;&gt;&lt;b style=&quot;font-size: 16px;&quot;&gt;START&lt;/b&gt;&lt;/font&gt;" style="ellipse;whiteSpace=wrap;html=1;strokeWidth=2;fillColor=#d5e8d4;strokeColor=#82b366;" vertex="1" parent="1">
          <mxGeometry x="307" y="-319" width="160" height="80" as="geometry" />
        </mxCell>
        <mxCell id="FjaWRYblNLU-ibb_c6nv-3" value="" style="endArrow=classic;html=1;rounded=0;fontSize=16;strokeWidth=2;" edge="1" parent="1" target="FjaWRYblNLU-ibb_c6nv-4">
          <mxGeometry width="50" height="50" relative="1" as="geometry">
            <mxPoint x="387" y="-239" as="sourcePoint" />
            <mxPoint x="387" y="-159" as="targetPoint" />
          </mxGeometry>
        </mxCell>
        <mxCell id="FjaWRYblNLU-ibb_c6nv-6" value="" style="edgeStyle=orthogonalEdgeStyle;rounded=0;orthogonalLoop=1;jettySize=auto;html=1;fontSize=16;strokeWidth=2;" edge="1" parent="1" source="FjaWRYblNLU-ibb_c6nv-4" target="FjaWRYblNLU-ibb_c6nv-5">
          <mxGeometry relative="1" as="geometry" />
        </mxCell>
        <mxCell id="FjaWRYblNLU-ibb_c6nv-4" value="&lt;b&gt;Input: 52364&lt;br&gt;&lt;/b&gt;" style="shape=parallelogram;perimeter=parallelogramPerimeter;whiteSpace=wrap;html=1;fixedSize=1;strokeWidth=2;fontSize=16;fillColor=#dae8fc;strokeColor=#6c8ebf;" vertex="1" parent="1">
          <mxGeometry x="307" y="-159" width="160" height="80" as="geometry" />
        </mxCell>
        <mxCell id="FjaWRYblNLU-ibb_c6nv-10" value="" style="edgeStyle=orthogonalEdgeStyle;rounded=0;orthogonalLoop=1;jettySize=auto;html=1;fontSize=16;strokeWidth=2;" edge="1" parent="1" source="FjaWRYblNLU-ibb_c6nv-5" target="FjaWRYblNLU-ibb_c6nv-9">
          <mxGeometry relative="1" as="geometry" />
        </mxCell>
        <mxCell id="FjaWRYblNLU-ibb_c6nv-5" value="&lt;b&gt;Save: Unsorted&lt;/b&gt;" style="rounded=0;whiteSpace=wrap;html=1;strokeWidth=2;fontSize=16;fillColor=#ffe6cc;strokeColor=#d79b00;" vertex="1" parent="1">
          <mxGeometry x="307" y="1" width="160" height="80" as="geometry" />
        </mxCell>
        <mxCell id="FjaWRYblNLU-ibb_c6nv-12" value="" style="edgeStyle=orthogonalEdgeStyle;rounded=0;orthogonalLoop=1;jettySize=auto;html=1;fontSize=15;strokeWidth=2;" edge="1" parent="1" source="FjaWRYblNLU-ibb_c6nv-9" target="FjaWRYblNLU-ibb_c6nv-11">
          <mxGeometry relative="1" as="geometry" />
        </mxCell>
        <mxCell id="FjaWRYblNLU-ibb_c6nv-16" value="" style="edgeStyle=orthogonalEdgeStyle;rounded=0;orthogonalLoop=1;jettySize=auto;html=1;fontSize=15;strokeWidth=2;" edge="1" parent="1" source="FjaWRYblNLU-ibb_c6nv-9" target="FjaWRYblNLU-ibb_c6nv-15">
          <mxGeometry relative="1" as="geometry" />
        </mxCell>
        <mxCell id="FjaWRYblNLU-ibb_c6nv-9" value="&lt;div style=&quot;font-size: 15px;&quot;&gt;&lt;b&gt;&lt;font style=&quot;font-size: 15px;&quot;&gt;if &lt;br&gt;&lt;/font&gt;&lt;/b&gt;&lt;/div&gt;&lt;div style=&quot;font-size: 15px;&quot;&gt;&lt;b&gt;&lt;font style=&quot;font-size: 15px;&quot;&gt;( unsorted.&lt;/font&gt;&lt;/b&gt;&lt;/div&gt;&lt;div style=&quot;font-size: 15px;&quot;&gt;&lt;b&gt;&lt;font style=&quot;font-size: 15px;&quot;&gt;length&amp;gt;1 )&lt;/font&gt;&lt;/b&gt;&lt;/div&gt;&lt;div style=&quot;font-size: 15px;&quot;&gt;&lt;b&gt;&lt;font style=&quot;font-size: 15px;&quot;&gt;&lt;br&gt;&lt;/font&gt;&lt;/b&gt;&lt;/div&gt;" style="rhombus;whiteSpace=wrap;html=1;fontSize=16;rounded=0;strokeWidth=2;fillColor=#a0522d;fontColor=#ffffff;strokeColor=#6D1F00;opacity=70;" vertex="1" parent="1">
          <mxGeometry x="307" y="161" width="160" height="120" as="geometry" />
        </mxCell>
        <mxCell id="FjaWRYblNLU-ibb_c6nv-14" value="" style="edgeStyle=orthogonalEdgeStyle;rounded=0;orthogonalLoop=1;jettySize=auto;html=1;fontSize=15;strokeWidth=2;" edge="1" parent="1" source="FjaWRYblNLU-ibb_c6nv-11" target="FjaWRYblNLU-ibb_c6nv-13">
          <mxGeometry relative="1" as="geometry" />
        </mxCell>
        <mxCell id="FjaWRYblNLU-ibb_c6nv-18" value="" style="edgeStyle=orthogonalEdgeStyle;rounded=0;orthogonalLoop=1;jettySize=auto;html=1;fontSize=15;strokeWidth=2;" edge="1" parent="1" source="FjaWRYblNLU-ibb_c6nv-11" target="FjaWRYblNLU-ibb_c6nv-17">
          <mxGeometry relative="1" as="geometry">
            <Array as="points">
              <mxPoint x="477" y="441" />
              <mxPoint x="477" y="441" />
            </Array>
          </mxGeometry>
        </mxCell>
        <mxCell id="FjaWRYblNLU-ibb_c6nv-11" value="&lt;div&gt;&lt;b&gt;Condition&lt;/b&gt;&lt;/div&gt;&lt;div&gt;&lt;b&gt;num1&amp;gt;num2&lt;br&gt;&lt;/b&gt;&lt;/div&gt;" style="rhombus;whiteSpace=wrap;html=1;fontSize=16;rounded=0;strokeWidth=2;fillColor=#a0522d;fontColor=#ffffff;strokeColor=#6D1F00;opacity=70;" vertex="1" parent="1">
          <mxGeometry x="307" y="361" width="160" height="120" as="geometry" />
        </mxCell>
        <mxCell id="FjaWRYblNLU-ibb_c6nv-13" value="&lt;b&gt;tmp=num1&lt;/b&gt;" style="rounded=0;whiteSpace=wrap;html=1;fontSize=16;strokeWidth=2;fillColor=#ffe6cc;strokeColor=#d79b00;opacity=70;" vertex="1" parent="1">
          <mxGeometry x="307" y="561" width="160" height="80" as="geometry" />
        </mxCell>
        <mxCell id="FjaWRYblNLU-ibb_c6nv-15" value="&lt;b&gt;END&lt;/b&gt;" style="ellipse;whiteSpace=wrap;html=1;fontSize=16;rounded=0;strokeWidth=2;fillColor=#e51400;fontColor=#ffffff;strokeColor=#B20000;opacity=70;" vertex="1" parent="1">
          <mxGeometry x="547" y="181" width="160" height="80" as="geometry" />
        </mxCell>
        <mxCell id="FjaWRYblNLU-ibb_c6nv-25" value="" style="edgeStyle=orthogonalEdgeStyle;rounded=0;orthogonalLoop=1;jettySize=auto;html=1;strokeWidth=2;fontSize=16;" edge="1" parent="1" source="FjaWRYblNLU-ibb_c6nv-17" target="FjaWRYblNLU-ibb_c6nv-24">
          <mxGeometry relative="1" as="geometry" />
        </mxCell>
        <mxCell id="FjaWRYblNLU-ibb_c6nv-17" value="&lt;b&gt;tmp=num2&lt;/b&gt;" style="whiteSpace=wrap;html=1;fontSize=16;rounded=0;strokeWidth=2;fillColor=#ffe6cc;strokeColor=#d79b00;opacity=70;" vertex="1" parent="1">
          <mxGeometry x="547" y="381" width="160" height="80" as="geometry" />
        </mxCell>
        <mxCell id="FjaWRYblNLU-ibb_c6nv-19" value="&lt;font style=&quot;font-size: 16px;&quot;&gt;&lt;b&gt;True&lt;/b&gt;&lt;/font&gt;" style="text;html=1;align=center;verticalAlign=middle;resizable=0;points=[];autosize=1;strokeColor=none;fillColor=none;fontSize=15;" vertex="1" parent="1">
          <mxGeometry x="392" y="301" width="60" height="30" as="geometry" />
        </mxCell>
        <mxCell id="FjaWRYblNLU-ibb_c6nv-20" value="&lt;b&gt;FALSE&lt;/b&gt;" style="text;html=1;align=center;verticalAlign=middle;resizable=0;points=[];autosize=1;strokeColor=none;fillColor=none;fontSize=15;" vertex="1" parent="1">
          <mxGeometry x="392" y="501" width="70" height="30" as="geometry" />
        </mxCell>
        <mxCell id="FjaWRYblNLU-ibb_c6nv-22" value="" style="endArrow=classic;html=1;rounded=0;fontSize=16;exitX=0;exitY=0.25;exitDx=0;exitDy=0;entryX=0.856;entryY=0.35;entryDx=0;entryDy=0;entryPerimeter=0;strokeWidth=2;" edge="1" parent="1" source="FjaWRYblNLU-ibb_c6nv-17" target="FjaWRYblNLU-ibb_c6nv-11">
          <mxGeometry width="50" height="50" relative="1" as="geometry">
            <mxPoint x="497" y="431" as="sourcePoint" />
            <mxPoint x="477" y="371" as="targetPoint" />
          </mxGeometry>
        </mxCell>
        <mxCell id="FjaWRYblNLU-ibb_c6nv-23" value="" style="endArrow=classic;html=1;rounded=0;strokeWidth=2;fontSize=16;exitX=0;exitY=0.5;exitDx=0;exitDy=0;" edge="1" parent="1" source="FjaWRYblNLU-ibb_c6nv-13">
          <mxGeometry width="50" height="50" relative="1" as="geometry">
            <mxPoint x="227" y="581" as="sourcePoint" />
            <mxPoint x="307" y="421" as="targetPoint" />
            <Array as="points">
              <mxPoint x="227" y="601" />
              <mxPoint x="227" y="421" />
            </Array>
          </mxGeometry>
        </mxCell>
        <mxCell id="FjaWRYblNLU-ibb_c6nv-27" value="" style="edgeStyle=orthogonalEdgeStyle;rounded=0;orthogonalLoop=1;jettySize=auto;html=1;strokeWidth=2;fontSize=16;" edge="1" parent="1" source="FjaWRYblNLU-ibb_c6nv-24" target="FjaWRYblNLU-ibb_c6nv-26">
          <mxGeometry relative="1" as="geometry" />
        </mxCell>
        <mxCell id="FjaWRYblNLU-ibb_c6nv-24" value="&lt;b&gt;print tmp&lt;br&gt;&lt;/b&gt;" style="shape=parallelogram;perimeter=parallelogramPerimeter;whiteSpace=wrap;html=1;fixedSize=1;fontSize=16;rounded=0;strokeWidth=2;fillColor=#dae8fc;strokeColor=#6c8ebf;opacity=70;" vertex="1" parent="1">
          <mxGeometry x="547" y="561" width="160" height="80" as="geometry" />
        </mxCell>
        <mxCell id="FjaWRYblNLU-ibb_c6nv-26" value="&lt;b&gt;END&lt;/b&gt;" style="ellipse;whiteSpace=wrap;html=1;fontSize=16;rounded=0;strokeWidth=2;fillColor=#e51400;fontColor=#ffffff;strokeColor=#B20000;opacity=70;" vertex="1" parent="1">
          <mxGeometry x="547" y="731" width="160" height="72" as="geometry" />
        </mxCell>
        <mxCell id="FjaWRYblNLU-ibb_c6nv-28" value="&lt;h1&gt;Flowchart Q1&lt;/h1&gt;" style="text;html=1;align=center;verticalAlign=middle;resizable=0;points=[];autosize=1;strokeColor=none;fillColor=none;fontSize=16;" vertex="1" parent="1">
          <mxGeometry x="297" y="-412" width="230" height="90" as="geometry" />
        </mxCell>
        <mxCell id="FjaWRYblNLU-ibb_c6nv-29" value="&lt;font style=&quot;font-size: 16px;&quot;&gt;&lt;b&gt;True&lt;/b&gt;&lt;/font&gt;" style="text;html=1;align=center;verticalAlign=middle;resizable=0;points=[];autosize=1;strokeColor=none;fillColor=none;fontSize=15;" vertex="1" parent="1">
          <mxGeometry x="460" y="440" width="60" height="30" as="geometry" />
        </mxCell>
      </root>
    </mxGraphModel>
  </diagram>
</mxfile>
